# xmcd
#
# Track frame offsets:
#	150
#	16310
#	32812
#	52617
#	69195
#	85832
#	101565
#	116607
#	136215
#	155342
#	171602
#	185365
#	199815
#	217412
#
# Disc length: 3127 seconds
#
# Revision: 3
# Processed by: cddbd v1.5.2PL0 Copyright (c) Steve Scherf et al.
# Submitted via: EZCDAudioConverter 6.0.5.1
#
DISCID=be0c350e
DTITLE=Kenny Rogers - The Very Best of Kenny Rogers
DYEAR=1997
DGENRE=Country
TTITLE0=The Gambler
TTITLE1=Love Will Turn You Around
TTITLE2=Through The Years
TTITLE3=You Decorated My Life
TTITLE4=Don' t Fall In Love With a Dreamer
TTITLE5=I Don't Need You
TTITLE6=Share Your Love With Me
TTITLE7=Coward Of The County
TTITLE8=She Believes In Me
TTITLE9=Lucille
TTITLE10=Every Time Two Fools Collide
TTITLE11=Daytime Friends
TTITLE12=Lady
TTITLE13=We've Got Tonight
EXTD=
EXTT0=
EXTT1=
EXTT2=
EXTT3=
EXTT4=
EXTT5=
EXTT6=
EXTT7=
EXTT8=
EXTT9=
EXTT10=
EXTT11=
EXTT12=
EXTT13=
PLAYORDER=
